<svg width="68" height="68" viewBox="0 0 68 68" fill="none" xmlns="http://www.w3.org/2000/svg">
<g filter="url(#filter0_di_31_187)">
<rect x="4" y="4" width="60" height="60" rx="30" fill="#EE7835"/>
<rect x="4" y="4" width="60" height="60" rx="30" fill="url(#paint0_linear_31_187)" fill-opacity="0.5"/>
<g filter="url(#filter1_i_31_187)">
<path fill-rule="evenodd" clip-rule="evenodd" d="M34.036 14C32.4812 14 31.2231 14.8005 28.9628 16.1055L21.0748 20.6593C18.8146 21.9642 17.4923 22.6532 16.7147 24C15.9371 25.3465 16.0013 26.8362 16.0013 29.4461V38.5539C16.0013 41.1638 15.9371 42.6535 16.7147 44C17.4923 45.3465 18.8143 46.0354 21.0748 47.3407L28.9628 51.8946C31.2233 53.1995 32.4812 54.0003 34.036 54C35.5909 54 36.8468 53.1995 39.1074 51.8946L46.9976 47.3407C49.258 46.0358 50.5779 45.3468 51.3555 44C52.133 42.6535 52.0689 41.1638 52.0689 38.5539V29.4461C52.0689 26.8362 52.133 25.3465 51.3555 24C50.5779 22.6535 49.258 21.9646 46.9976 20.6593L39.1074 16.1055C36.8469 14.8005 35.5912 14 34.036 14ZM34.036 16.2069C34.7414 16.2069 35.7434 16.7123 38.0036 18.0172L45.8938 22.5711C47.2331 23.3443 48.0709 23.8633 48.6351 24.2953L38.0035 30.4352C35.743 31.7402 34.7412 32.2434 34.0359 32.2434C33.3307 32.2434 32.3264 31.7402 30.0662 30.4352L19.4345 24.2974C19.9988 23.8652 20.8369 23.3456 22.1781 22.5711L30.0661 18.0172C32.3266 16.7123 33.3305 16.2069 34.0359 16.2069H34.036ZM25.1267 22.6898C23.6574 22.6898 22.4672 23.3781 22.4672 24.2264C22.4672 25.0746 23.6574 25.7629 25.1267 25.7629C26.596 25.7629 27.7884 25.0746 27.7884 24.2264C27.7887 23.8112 27.4979 23.4125 26.9823 23.123C26.4853 22.8445 25.8191 22.6895 25.1267 22.6898ZM34.036 22.6898C32.5667 22.6898 31.3744 23.3781 31.3744 24.2264C31.3744 25.0746 32.5667 25.7607 34.036 25.7607C35.5053 25.7607 36.6956 25.0746 36.6956 24.2264C36.6956 23.8267 36.4255 23.442 35.9434 23.1552C35.4424 22.8575 34.755 22.6898 34.0361 22.6895L34.036 22.6898ZM42.9437 22.6898C41.4744 22.6898 40.2821 23.3781 40.2821 24.2264C40.2821 25.0746 41.4744 25.7607 42.9437 25.7607C44.413 25.7607 45.6033 25.0746 45.6033 24.2264C45.6033 23.8112 45.3131 23.4122 44.7972 23.123C44.3008 22.8445 43.6358 22.6898 42.9437 22.6898ZM49.7392 26.2072C49.8309 26.9122 49.8619 27.8975 49.8619 29.4465V38.5542C49.8619 41.1641 49.7987 42.2862 49.4459 42.8969C49.093 43.508 48.1545 44.1244 45.8941 45.4293L38.0039 49.9832C36.6639 50.7567 35.7955 51.2233 35.1397 51.4961V39.2199C35.1397 36.61 35.203 35.4883 35.5558 34.8772C35.9086 34.2664 36.8471 33.6497 39.1076 32.3448L49.7392 26.2072ZM18.334 26.2094L28.9632 32.3451C31.2237 33.65 32.1623 34.2664 32.5151 34.8775C32.8679 35.4882 32.9333 36.6103 32.9333 39.2202V51.4964C32.2769 51.2235 31.407 50.7569 30.067 49.9834L22.179 45.4296C19.9185 44.1246 18.98 43.5083 18.6272 42.8972C18.2743 42.2864 18.2089 41.1644 18.2089 38.5544V29.4467C18.2089 27.8996 18.2418 26.9147 18.3339 26.2096L18.334 26.2094ZM47.6621 28.7526C47.4311 28.7777 47.1812 28.8667 46.9273 29.0177C46.438 29.3085 45.9717 29.8065 45.6254 30.4057C44.8909 31.6781 44.8909 33.0526 45.6254 33.477C46.3602 33.9011 47.5502 33.215 48.285 31.9426C49.0194 30.6702 49.0194 29.2936 48.285 28.8691C48.1051 28.7653 47.8931 28.7274 47.6621 28.7529L47.6621 28.7526ZM29.291 33.8928C29.0697 33.8733 28.8672 33.9136 28.6939 34.0134C27.9594 34.4375 27.9594 35.8122 28.6939 37.0846C29.4287 38.357 30.6186 39.0453 31.3534 38.6212C32.0879 38.197 32.0879 36.8202 31.3534 35.5477C30.9938 34.9251 30.5061 34.4145 29.998 34.1296C29.7533 33.9926 29.5124 33.9123 29.2911 33.8924L29.291 33.8928ZM38.7805 33.8928C38.5592 33.9123 38.3204 33.9905 38.0758 34.1278C37.5674 34.4127 37.0775 34.9256 36.7182 35.5481C35.9837 36.8205 35.9837 38.195 36.7182 38.6194C37.453 39.0435 38.6429 38.3574 39.3777 37.085C40.1122 35.8126 40.1122 34.436 39.3777 34.0118C39.2047 33.912 39.002 33.8736 38.7806 33.8934L38.7805 33.8928ZM47.6882 33.8928C47.4669 33.9123 47.2281 33.9905 46.9835 34.1278C46.4751 34.4127 45.9852 34.9256 45.6259 35.5481C44.8914 36.8205 44.8914 38.1971 45.6259 38.6216C46.3607 39.0457 47.5506 38.3574 48.2854 37.0851C49.0199 35.8127 49.0199 34.4361 48.2854 34.0119C48.1124 33.9121 47.9097 33.8736 47.6883 33.8935L47.6882 33.8928ZM20.3841 39.0351C20.1628 39.0156 19.96 39.0556 19.787 39.1557C19.0525 39.5799 19.0525 40.9567 19.787 42.2292C20.5218 43.5015 21.7139 44.1877 22.4487 43.7635C23.1832 43.3394 23.1832 41.9647 22.4487 40.6923C22.0893 40.0694 21.5995 39.5572 21.091 39.272C20.8464 39.135 20.6055 39.0543 20.3842 39.0348L20.3841 39.0351ZM38.7813 39.0351C38.56 39.0546 38.3212 39.1349 38.0766 39.2723C37.5681 39.5572 37.0783 40.0678 36.719 40.6904C35.9845 41.9628 35.9845 43.3394 36.719 43.7638C37.4538 44.188 38.6437 43.4997 39.3785 42.2273C40.113 40.9549 40.113 39.5805 39.3785 39.1561C39.2055 39.0563 39.0027 39.0156 38.7814 39.0355L38.7813 39.0351ZM47.689 39.0351C47.4677 39.0546 47.2289 39.1353 46.9843 39.2723C46.4759 39.5575 45.986 40.0697 45.6267 40.6926C44.8922 41.965 44.8922 43.3395 45.6267 43.7638C46.3615 44.188 47.5514 43.5019 48.2862 42.2295C49.0207 40.9571 49.0207 39.5805 48.2862 39.156C48.1132 39.0559 47.9105 39.0159 47.6891 39.0354L47.689 39.0351ZM38.7559 44.1818C38.5249 44.2066 38.2754 44.2937 38.0211 44.4447C37.5316 44.7358 37.0653 45.235 36.7193 45.8349C35.9848 47.1073 35.9848 48.4818 36.7193 48.9062C37.4541 49.3303 38.644 48.6439 39.3788 47.3718C40.1133 46.0994 40.1133 44.7228 39.3788 44.2983C39.1993 44.1942 38.987 44.157 38.756 44.1821L38.7559 44.1818Z" fill="white"/>
</g>
</g>
<defs>
<filter id="filter0_di_31_187" x="0" y="0" width="68" height="68" filterUnits="userSpaceOnUse" color-interpolation-filters="sRGB">
<feFlood flood-opacity="0" result="BackgroundImageFix"/>
<feColorMatrix in="SourceAlpha" type="matrix" values="0 0 0 0 0 0 0 0 0 0 0 0 0 0 0 0 0 0 127 0" result="hardAlpha"/>
<feOffset/>
<feGaussianBlur stdDeviation="2"/>
<feComposite in2="hardAlpha" operator="out"/>
<feColorMatrix type="matrix" values="0 0 0 0 1 0 0 0 0 0.36 0 0 0 0 0 0 0 0 0.93 0"/>
<feBlend mode="normal" in2="BackgroundImageFix" result="effect1_dropShadow_31_187"/>
<feBlend mode="normal" in="SourceGraphic" in2="effect1_dropShadow_31_187" result="shape"/>
<feColorMatrix in="SourceAlpha" type="matrix" values="0 0 0 0 0 0 0 0 0 0 0 0 0 0 0 0 0 0 127 0" result="hardAlpha"/>
<feOffset dy="1"/>
<feGaussianBlur stdDeviation="0.5"/>
<feComposite in2="hardAlpha" operator="arithmetic" k2="-1" k3="1"/>
<feColorMatrix type="matrix" values="0 0 0 0 1 0 0 0 0 0.24 0 0 0 0 0 0 0 0 1 0"/>
<feBlend mode="normal" in2="shape" result="effect2_innerShadow_31_187"/>
</filter>
<filter id="filter1_i_31_187" x="16" y="14" width="36.0701" height="41" filterUnits="userSpaceOnUse" color-interpolation-filters="sRGB">
<feFlood flood-opacity="0" result="BackgroundImageFix"/>
<feBlend mode="normal" in="SourceGraphic" in2="BackgroundImageFix" result="shape"/>
<feColorMatrix in="SourceAlpha" type="matrix" values="0 0 0 0 0 0 0 0 0 0 0 0 0 0 0 0 0 0 127 0" result="hardAlpha"/>
<feOffset dy="1"/>
<feGaussianBlur stdDeviation="0.5"/>
<feComposite in2="hardAlpha" operator="arithmetic" k2="-1" k3="1"/>
<feColorMatrix type="matrix" values="0 0 0 0 0 0 0 0 0 0 0 0 0 0 0 0 0 0 0.25 0"/>
<feBlend mode="normal" in2="shape" result="effect1_innerShadow_31_187"/>
</filter>
<linearGradient id="paint0_linear_31_187" x1="34" y1="4" x2="34" y2="64" gradientUnits="userSpaceOnUse">
<stop stop-color="#FFC700"/>
<stop offset="1" stop-color="#EE7835" stop-opacity="0"/>
</linearGradient>
</defs>
</svg>
